<mxfile host="app.diagrams.net" modified="2024-03-29T02:16:13.977Z" agent="Mozilla/5.0 (Macintosh; Intel Mac OS X 10_15_7) AppleWebKit/605.1.15 (KHTML, like Gecko) Version/17.2.1 Safari/605.1.15" version="24.2.1" etag="A9vCUDWz4C8E4SD9PtW8" type="github">
  <diagram name="Page-1" id="k9EaVZVAbxrQNVvtNwEI">
    <mxGraphModel>
      <root>
        <mxCell id="0" />
        <mxCell id="1" parent="0" />
      </root>
    </mxGraphModel>
  </diagram>
</mxfile>
